<?xml version="1.0" encoding="utf-8"?>
<!-- Generator: Adobe Illustrator 26.1.0, SVG Export Plug-In . SVG Version: 6.00 Build 0)  -->
<svg version="1.1" id="Capa_1" xmlns="http://www.w3.org/2000/svg" xmlns:xlink="http://www.w3.org/1999/xlink" x="0px" y="0px"
	 viewBox="0 0 1000 80" style="enable-background:new 0 0 1000 80;" xml:space="preserve">
<style type="text/css">
	.st0{fill:#C9C9C9;}
</style>
<g>
	<path class="st0" d="M334.04-257.31c0,14.26-9.77,24.42-24.19,24.42c-13.83,0-25-11.17-25-25c0-13.83,11.17-25,25-25
		c6.73,0,12.4,2.47,16.76,6.54l-6.8,6.54c-8.9-8.59-25.45-2.14-25.45,11.92c0,8.72,6.97,15.79,15.49,15.79
		c9.9,0,13.61-7.1,14.19-10.78h-14.19v-8.6h23.8C333.88-260.2,334.04-258.97,334.04-257.31L334.04-257.31z"/>
	<path class="st0" d="M524.58-257.74c0-13.81-11.19-25-25-25s-25,11.19-25,25c0,12.48,9.14,22.82,21.09,24.7v-17.47h-6.35v-7.23
		h6.35v-5.51c0-6.27,3.73-9.73,9.44-9.73c2.74,0,5.6,0.49,5.6,0.49v6.15h-3.15c-3.1,0-4.07,1.93-4.07,3.9v4.69h6.93l-1.11,7.23
		h-5.82v17.47C515.44-234.92,524.58-245.26,524.58-257.74z"/>
	<path class="st0" d="M678.41-262.69l-7.7-11.84c4.8-5.97,12-9.25,19.36-9.28c4.26-0.03,8.62,1.06,12.58,3.35
		c4.38,2.54,7.7,6.19,9.82,10.38l-20.7-1.09C685.91-271.51,680.34-268.21,678.41-262.69z M681.73-258.81c0,4.66,3.77,8.43,8.43,8.43
		c4.66,0,8.43-3.77,8.43-8.43c0-4.66-3.77-8.43-8.43-8.43C685.5-267.24,681.73-263.48,681.73-258.81z M713.47-267.8l-14.08,0.73
		c3.82,4.47,3.88,10.91,0.67,15.85l-11.3,17.38c4.69,0.25,9.52-0.78,13.89-3.32C713.47-243.41,717.86-256.52,713.47-267.8
		L713.47-267.8z M678.63-254.01l-9.41-18.5c-2.57,3.93-4.07,8.65-4.07,13.7c0,12.5,9.15,22.85,21.12,24.69l6.42-12.58
		C686.89-245.61,681.28-248.8,678.63-254.01L678.63-254.01z"/>
</g>
<g>
	<path class="st0" d="M309.64,15c-13.79,0-25,11.21-25,25s11.21,25,25,25c13.79,0,25-11.21,25-25S323.43,15,309.64,15z
		 M326.17,26.53c2.97,3.63,4.78,8.26,4.82,13.3c-0.7-0.15-7.76-1.58-14.87-0.69c-0.58-1.42-1.13-2.66-1.88-4.19
		C322.14,31.73,325.72,27.14,326.17,26.53L326.17,26.53z M323.8,24.06c-0.38,0.55-3.6,4.87-11.19,7.71
		c-3.5-6.43-7.38-11.71-7.97-12.5C311.41,17.64,318.55,19.4,323.8,24.06z M300.57,20.71c0.56,0.77,4.38,6.06,7.92,12.35
		c-9.99,2.65-18.79,2.61-19.74,2.6C290.13,29.03,294.59,23.53,300.57,20.71z M288.29,40.03c0-0.22,0-0.44,0.01-0.65
		c0.93,0.02,11.28,0.15,21.95-3.04c0.61,1.2,1.2,2.41,1.73,3.62c-7.72,2.17-14.74,8.42-18.2,14.35
		C290.37,50.52,288.29,45.52,288.29,40.03z M296.54,56.88c2.23-4.56,8.28-10.45,16.89-13.38c3,7.79,4.24,14.32,4.56,16.19
		C311.12,62.61,302.86,61.81,296.54,56.88z M321.58,57.73c-0.22-1.3-1.36-7.55-4.15-15.23c6.69-1.07,12.57,0.68,13.3,0.91
		C329.78,49.36,326.37,54.5,321.58,57.73z"/>
	<path class="st0" d="M475.43,45.66c-0.42-1.9-0.65-3.82-0.65-5.74c0-13.76,11.14-24.92,24.9-24.92c1.85,0,3.72,0.22,5.5,0.61
		C491.41,20.86,480.58,31.85,475.43,45.66z M519.28,24.54c-1.53-1.95-3.31-3.65-5.33-5.06c-16.7,4.94-29.72,18.09-34.56,34.82
		c1.4,2.02,3.12,3.97,5.04,5.47C489.24,42.89,502.42,29.45,519.28,24.54L519.28,24.54z M521.05,52.75c1.7-2.8,2.83-5.99,3.29-9.24
		c-8.86,4.79-16.18,12.34-20.94,21.24c3.35-0.49,6.57-1.71,9.44-3.49c3.91,1.46,7.91,2.71,11.94,3.75
		C523.75,60.93,522.51,56.69,521.05,52.75z M524.36,36.51c-0.29-2.18-0.88-4.32-1.76-6.34c-15.39,5.11-27.5,17.48-32.51,32.94
		c2.02,0.85,4.13,1.4,6.32,1.7C501.57,52.06,511.67,41.72,524.36,36.51L524.36,36.51z"/>
	<path class="st0" d="M690.36,15c-13.81,0-25,11.19-25,25s11.19,25,25,25s25-11.19,25-25S704.17,15,690.36,15z M695.67,24.38
		c0.89-1.53,2.85-2.07,4.39-1.18c1.54,0.89,2.07,2.85,1.18,4.4c-0.89,1.53-2.85,2.07-4.39,1.18
		C695.31,27.87,694.78,25.91,695.67,24.38z M674.17,43.22c-1.77,0-3.22-1.44-3.22-3.22s1.44-3.22,3.22-3.22s3.22,1.44,3.22,3.22
		S675.94,43.22,674.17,43.22z M677,43.53c2.25-1.8,2.26-5.23,0-7.05c0.87-3.31,2.93-6.12,5.7-7.97l2.39,3.99
		c-5.19,3.66-5.19,11.34,0,15l-2.39,3.99C679.93,49.65,677.88,46.82,677,43.53z M700.05,56.8c-1.54,0.89-3.5,0.36-4.39-1.18
		s-0.36-3.51,1.18-4.4c1.53-0.89,3.5-0.36,4.39,1.18C702.12,53.95,701.6,55.92,700.05,56.8z M700.08,49.8
		c-2.69-1.04-5.66,0.67-6.1,3.53c-0.52,0.14-4.93,1.44-9.75-0.95l2.27-4.06c5.75,2.67,12.44-1.18,12.99-7.5l4.65,0.07
		C703.91,44.36,702.4,47.49,700.08,49.8L700.08,49.8z M699.49,39.18c-0.54-6.25-7.19-10.2-12.99-7.5l-2.27-4.06
		c4.83-2.39,9.22-1.09,9.75-0.95c0.44,2.85,3.41,4.57,6.1,3.53c2.33,2.31,3.83,5.43,4.05,8.92L699.49,39.18L699.49,39.18z"/>
</g>
<rect x="334.22" y="173.23" width="140.54" height="108.22"/>
<rect x="524.79" y="173.23" width="140.54" height="108.22"/>
</svg>
