<?xml version="1.0" encoding="utf-8"?>
<!-- Generator: Adobe Illustrator 26.1.0, SVG Export Plug-In . SVG Version: 6.00 Build 0)  -->
<svg version="1.1" id="Capa_1" xmlns="http://www.w3.org/2000/svg" xmlns:xlink="http://www.w3.org/1999/xlink" x="0px" y="0px"
	 viewBox="0 0 1000 80" style="enable-background:new 0 0 1000 80;" xml:space="preserve">
<style type="text/css">
	.st0{fill:#C9C9C9;}
</style>
<g>
	<path class="st0" d="M334.04,41.04c0,14.26-9.77,24.42-24.19,24.42c-13.83,0-25-11.17-25-25s11.17-25,25-25
		c6.73,0,12.4,2.47,16.76,6.54l-6.8,6.54c-8.9-8.59-25.45-2.14-25.45,11.92c0,8.72,6.97,15.79,15.49,15.79
		c9.9,0,13.61-7.1,14.19-10.78h-14.19v-8.6h23.8C333.88,38.15,334.04,39.38,334.04,41.04L334.04,41.04z"/>
	<path class="st0" d="M524.58,40.61c0-13.81-11.19-25-25-25s-25,11.19-25,25c0,12.48,9.14,22.82,21.09,24.7V47.84h-6.35v-7.23h6.35
		V35.1c0-6.27,3.73-9.73,9.44-9.73c2.74,0,5.6,0.49,5.6,0.49v6.15h-3.15c-3.1,0-4.07,1.93-4.07,3.9v4.69h6.93l-1.11,7.23h-5.82
		v17.47C515.44,63.43,524.58,53.09,524.58,40.61z"/>
	<path class="st0" d="M678.41,35.66l-7.7-11.84c4.8-5.97,12-9.25,19.36-9.28c4.26-0.03,8.62,1.06,12.58,3.35
		c4.38,2.54,7.7,6.19,9.82,10.38l-20.7-1.09C685.91,26.84,680.34,30.14,678.41,35.66z M681.73,39.54c0,4.66,3.77,8.43,8.43,8.43
		c4.66,0,8.43-3.77,8.43-8.43s-3.77-8.43-8.43-8.43C685.5,31.11,681.73,34.87,681.73,39.54z M713.47,30.55l-14.08,0.73
		c3.82,4.47,3.88,10.91,0.67,15.85l-11.3,17.38c4.69,0.25,9.52-0.78,13.89-3.32C713.47,54.94,717.86,41.83,713.47,30.55
		L713.47,30.55z M678.63,44.34l-9.41-18.5c-2.57,3.93-4.07,8.65-4.07,13.7c0,12.5,9.15,22.85,21.12,24.69l6.42-12.58
		C686.89,52.74,681.28,49.55,678.63,44.34L678.63,44.34z"/>
</g>
<path class="st0" d="M309.44-139.51c-13.79,0-25,11.21-25,25s11.21,25,25,25c13.79,0,25-11.21,25-25S323.23-139.51,309.44-139.51z
	 M325.97-127.98c2.97,3.63,4.78,8.26,4.82,13.3c-0.7-0.15-7.76-1.58-14.87-0.69c-0.58-1.42-1.13-2.66-1.88-4.19
	C321.94-122.79,325.52-127.37,325.97-127.98L325.97-127.98z M323.6-130.45c-0.38,0.55-3.6,4.87-11.19,7.71
	c-3.5-6.43-7.38-11.71-7.97-12.5C311.21-136.87,318.35-135.11,323.6-130.45z M300.36-133.8c0.56,0.77,4.38,6.06,7.92,12.35
	c-9.99,2.65-18.79,2.61-19.74,2.6C289.92-125.48,294.39-130.99,300.36-133.8z M288.09-114.48c0-0.22,0-0.44,0.01-0.65
	c0.93,0.02,11.28,0.15,21.95-3.04c0.61,1.2,1.2,2.41,1.73,3.62c-7.72,2.17-14.74,8.42-18.2,14.35
	C290.17-103.99,288.09-109,288.09-114.48z M296.33-97.63c2.23-4.56,8.28-10.45,16.89-13.38c3,7.79,4.24,14.32,4.56,16.19
	C310.92-91.9,302.66-92.7,296.33-97.63z M321.37-96.78c-0.22-1.3-1.36-7.55-4.15-15.23c6.69-1.07,12.57,0.68,13.3,0.91
	C329.57-105.15,326.16-100.02,321.37-96.78z"/>
<path class="st0" d="M475.23-108.85c-0.42-1.9-0.65-3.82-0.65-5.74c0-13.76,11.14-24.92,24.9-24.92c1.85,0,3.72,0.22,5.5,0.61
	C491.21-133.65,480.38-122.66,475.23-108.85z M519.08-129.97c-1.53-1.95-3.31-3.65-5.33-5.06c-16.7,4.94-29.72,18.09-34.56,34.82
	c1.4,2.02,3.12,3.97,5.04,5.47C489.04-111.62,502.22-125.06,519.08-129.97L519.08-129.97z M520.84-101.77
	c1.7-2.8,2.83-5.99,3.29-9.24c-8.86,4.79-16.18,12.34-20.94,21.24c3.35-0.49,6.57-1.71,9.44-3.49c3.91,1.46,7.91,2.71,11.94,3.75
	C523.54-93.59,522.31-97.83,520.84-101.77z M524.16-118.01c-0.29-2.18-0.88-4.32-1.76-6.34c-15.39,5.11-27.5,17.48-32.51,32.94
	c2.02,0.85,4.13,1.4,6.32,1.7C501.37-102.45,511.47-112.79,524.16-118.01L524.16-118.01z"/>
<path class="st0" d="M690.15-139.51c-13.81,0-25,11.19-25,25s11.19,25,25,25s25-11.19,25-25S703.96-139.51,690.15-139.51z
	 M695.47-130.14c0.89-1.53,2.85-2.07,4.39-1.18c1.54,0.89,2.07,2.85,1.18,4.4c-0.89,1.53-2.85,2.07-4.39,1.18
	C695.1-126.64,694.58-128.61,695.47-130.14z M673.96-111.3c-1.77,0-3.22-1.44-3.22-3.22s1.44-3.22,3.22-3.22
	c1.77,0,3.22,1.44,3.22,3.22S675.74-111.3,673.96-111.3z M676.8-110.98c2.25-1.8,2.26-5.23,0-7.05c0.87-3.31,2.93-6.12,5.7-7.97
	l2.39,3.99c-5.19,3.66-5.19,11.34,0,15l-2.39,3.99C679.73-104.87,677.67-107.69,676.8-110.98z M699.85-97.71
	c-1.54,0.89-3.5,0.36-4.39-1.18c-0.89-1.54-0.36-3.51,1.18-4.4c1.53-0.89,3.5-0.36,4.39,1.18
	C701.92-100.56,701.39-98.6,699.85-97.71z M699.88-104.71c-2.69-1.04-5.66,0.67-6.1,3.53c-0.52,0.14-4.93,1.44-9.75-0.95l2.27-4.06
	c5.75,2.67,12.44-1.18,12.99-7.5l4.65,0.07C703.71-110.15,702.2-107.02,699.88-104.71L699.88-104.71z M699.29-115.33
	c-0.54-6.25-7.19-10.2-12.99-7.5l-2.27-4.06c4.83-2.39,9.22-1.09,9.75-0.95c0.44,2.85,3.41,4.57,6.1,3.53
	c2.33,2.31,3.83,5.43,4.05,8.92L699.29-115.33L699.29-115.33z"/>
<rect x="334.22" y="173.23" width="140.54" height="108.22"/>
<rect x="524.79" y="173.23" width="140.54" height="108.22"/>
</svg>
